<?xml version="1.0" encoding="iso-8859-1"?>
<!-- Uploaded to: SVG Repo, www.svgrepo.com, Generator: SVG Repo Mixer Tools -->
<svg fill="#000000" height="31" width="31" version="1.1" id="Layer_1" xmlns="http://www.w3.org/2000/svg" xmlns:xlink="http://www.w3.org/1999/xlink" 
	 viewBox="0 0 511.999 511.999" xml:space="preserve">
<g>
	<g>
		<path d="M245.097,116.584l-8.501-6.832c-3.278-2.633-5.126-6.557-5.068-10.762c0.057-4.205,2.009-8.076,5.358-10.621
			c11.738-8.92,18.676-22.489,19.035-37.227c0.359-14.739-5.908-28.63-17.198-38.112c-7.331-6.158-18.264-5.206-24.42,2.125
			c-6.157,7.331-5.206,18.263,2.124,24.421c4.347,3.651,4.897,8.284,4.838,10.72c-0.06,2.435-0.835,7.035-5.357,10.47
			c-11.901,9.046-18.843,22.805-19.044,37.753c-0.202,14.947,6.365,28.89,18.017,38.253l8.501,6.832
			c3.202,2.573,7.036,3.824,10.847,3.824c5.072,0,10.098-2.216,13.522-6.477C253.747,133.49,252.559,122.58,245.097,116.584z"/>
	</g>
</g>
<g>
	<g>
		<path d="M317.08,125.552l-9.971-8.014c-4.568-3.671-7.142-9.137-7.063-14.997c0.08-5.86,2.801-11.254,7.467-14.8
			c13.037-9.909,20.743-24.98,21.142-41.35c0.4-16.369-6.562-31.799-19.1-42.33c-7.331-6.158-18.264-5.207-24.421,2.124
			c-6.157,7.33-5.206,18.263,2.124,24.42c4.426,3.717,6.882,9.163,6.741,14.941c-0.142,5.778-2.862,11.098-7.464,14.594
			c-13.218,10.045-20.929,25.328-21.153,41.93c-0.224,16.602,7.07,32.088,20.01,42.488l9.971,8.014
			c3.202,2.573,7.037,3.824,10.847,3.824c5.072,0,10.097-2.216,13.522-6.476C325.729,142.459,324.543,131.549,317.08,125.552z"/>
	</g>
</g>
<g>
	<g>
		<path d="M386.351,116.584l-8.501-6.832c-3.278-2.633-5.126-6.557-5.068-10.762c0.057-4.205,2.01-8.076,5.358-10.621
			c11.738-8.92,18.676-22.489,19.035-37.227c0.359-14.739-5.908-28.63-17.198-38.112c-7.331-6.158-18.264-5.206-24.42,2.125
			c-6.157,7.331-5.206,18.263,2.124,24.421c4.347,3.651,4.897,8.284,4.838,10.72c-0.061,2.435-0.837,7.035-5.357,10.47
			c-11.901,9.046-18.843,22.805-19.044,37.753c-0.202,14.947,6.365,28.89,18.017,38.253l8.501,6.832
			c3.202,2.573,7.036,3.824,10.847,3.824c5.072,0,10.098-2.216,13.522-6.477C395.002,133.49,393.814,122.58,386.351,116.584z"/>
	</g>
</g>
<g>
	<g>
		<path d="M477.865,242.056v-62.323c0-9.573-7.761-17.473-17.333-17.473c-6.286,0-11.775,3.606-14.814,8.229H146.232L66.847,18.079
			c-4.42-8.491-14.888-11.723-23.378-7.303c-8.492,4.419-11.793,14.919-7.375,23.412l77.775,149.488v58.38
			c0,70.32,39.84,131.478,98.068,161.992l-54.124,80.985c-5.319,7.959-3.179,18.723,4.779,24.042
			c2.959,1.978,6.306,2.925,9.615,2.925c5.594,0,11.085-2.704,14.427-7.704l24.083-36.034l68.394,21.102v4.676
			c0,9.573,7.761,17.333,17.333,17.333c9.573,0,17.333-7.761,17.333-17.333v-4.676l68.394-21.102l24.083,36.034
			c3.342,5,8.833,7.704,14.427,7.704c3.31,0,6.657-0.946,9.615-2.925c7.959-5.319,10.098-16.083,4.779-24.042l-54.366-81.346
			C438.43,373.053,477.865,312.101,477.865,242.056z M279.113,453.085l-48.294-14.899l13.936-20.852
			c11.056,3.256,22.545,5.486,34.358,6.581V453.085z M313.777,453.086v-29.239c11.768-1.144,23.208-3.424,34.217-6.723
			l14.077,21.061L313.777,453.086z M148.537,220.178v-15.022h294.663v15.022H148.537z"/>
	</g>
</g>
</svg>