<svg width="31" height="31" viewBox="0 0 31 31" fill="none" xmlns="http://www.w3.org/2000/svg">
<path d="M15.3086 22.1855C18.9508 22.1855 21.9034 19.26 21.9034 15.6513C21.9034 12.0426 18.9508 9.11719 15.3086 9.11719C11.6664 9.11719 8.71387 12.0426 8.71387 15.6513C8.71387 19.26 11.6664 22.1855 15.3086 22.1855Z" stroke="#41272B" stroke-width="2" stroke-miterlimit="10"/>
<path d="M26.9822 11.1012C27.543 12.509 27.849 14.0449 27.849 15.6515C27.849 22.5157 22.2332 28.0798 15.3054 28.0798C8.37746 28.0798 2.76172 22.5157 2.76172 15.6515C2.76172 8.78727 8.37746 3.22314 15.3054 3.22314C18.239 3.22314 20.9381 4.22011 23.0729 5.89406" stroke="#41272B" stroke-width="2" stroke-miterlimit="10"/>
<path d="M4.49854 1V29.5953" stroke="#41272B" stroke-width="2" stroke-miterlimit="10" stroke-linecap="round" stroke-linejoin="round"/>
<path d="M6.99706 1.00061V10.0541C6.99706 10.5964 6.55174 11.0376 6.00445 11.0376H2.99261C2.44532 11.0376 2 10.5964 2 10.0541V1.00061" stroke="#41272B" stroke-width="2" stroke-miterlimit="10" stroke-linecap="round" stroke-linejoin="round"/>
<path d="M26.1831 11.2729V29.5955" stroke="#41272B" stroke-width="2" stroke-miterlimit="10" stroke-linecap="round" stroke-linejoin="round"/>
<path d="M26.1832 11.2727C27.901 11.2727 29.2936 8.97311 29.2936 6.13637C29.2936 3.29963 27.901 1 26.1832 1C24.4653 1 23.0728 3.29963 23.0728 6.13637C23.0728 8.97311 24.4653 11.2727 26.1832 11.2727Z" stroke="#41272B" stroke-width="2" stroke-miterlimit="10" stroke-linecap="round" stroke-linejoin="round"/>
</svg>
