<svg width="31" height="31" viewBox="0 0 31 31" fill="none" xmlns="http://www.w3.org/2000/svg">
<path d="M10.9029 29.9952H7.13332C6.81889 29.9952 6.52273 29.8671 6.30702 29.6365L5.7988 29.0946C4.03651 27.2056 2.7349 24.9321 2 22.4536H10.9029H10.9212H19.824C19.0891 24.9321 17.7912 27.2056 16.0252 29.0946L15.517 29.6365C15.305 29.8635 15.0051 29.9952 14.6907 29.9952H10.9212H10.9029V29.9952Z" stroke="#41272B" stroke-width="2" stroke-miterlimit="10" stroke-linecap="round" stroke-linejoin="round"/>
<path d="M13.1768 22.4537C12.7673 21.619 12.4273 20.7514 12.1641 19.8544H21.0669H21.0852H22.8182H29.9881C29.2532 22.3329 27.9516 24.6064 26.1893 26.4955L25.6811 27.0373C25.469 27.2643 25.1692 27.3961 24.8548 27.3961H21.0852H21.0669H17.4144" stroke="#41272B" stroke-width="2" stroke-miterlimit="10" stroke-linecap="round" stroke-linejoin="round"/>
<path d="M9.56129 22.4538C8.11343 20.7148 7.03119 18.6976 6.3877 16.5229H15.2906H15.3089H24.2117C23.868 17.6835 23.4 18.8001 22.8187 19.8545" stroke="#41272B" stroke-width="2" stroke-miterlimit="10" stroke-linecap="round" stroke-linejoin="round"/>
<path d="M12.3399 2C12.3399 3.59253 9.92676 3.59253 9.92676 5.18506C9.92676 6.77759 12.3399 6.77759 12.3399 8.37012C12.3399 9.96265 9.92676 9.96265 9.92676 11.5552C9.92676 13.1477 12.3399 13.1477 12.3399 14.7402" stroke="#41272B" stroke-width="2" stroke-miterlimit="10" stroke-linecap="round" stroke-linejoin="round"/>
<path d="M17.2022 2C17.2022 3.59253 14.7891 3.59253 14.7891 5.18506C14.7891 6.77759 17.2022 6.77759 17.2022 8.37012C17.2022 9.96265 14.7891 9.96265 14.7891 11.5552C14.7891 13.1477 17.2022 13.1477 17.2022 14.7402" stroke="#41272B" stroke-width="2" stroke-miterlimit="10" stroke-linecap="round" stroke-linejoin="round"/>
<path d="M22.0655 2C22.0655 3.59253 19.6523 3.59253 19.6523 5.18506C19.6523 6.77759 22.0655 6.77759 22.0655 8.37012C22.0655 9.96265 19.6523 9.96265 19.6523 11.5552C19.6523 13.1477 22.0655 13.1477 22.0655 14.7402" stroke="#41272B" stroke-width="2" stroke-miterlimit="10" stroke-linecap="round" stroke-linejoin="round"/>
</svg>