<svg width="128" height="64" viewBox="0 0 128 64" fill="none" xmlns="http://www.w3.org/2000/svg">
<path d="M6.00798 50H0.375977V0.719971H6.00798L22.072 42.96L22.136 43.408L22.2 42.96L38.328 0.719971H43.96V50H38.328V15.44L38.392 14.352L38.136 15.44L24.888 50H19.448L6.19998 15.44L5.94398 14.416L6.00798 15.44V50Z" fill="#37AC00"/>
<path d="M87.2005 45.136V50H80.4805V63.056H74.7845V50H51.4885V46.992L76.5765 13.776H80.4805V45.136H87.2005ZM59.7445 45.136H74.7845V23.632L59.4245 44.432L58.5285 45.328V45.392L59.7445 45.136Z" fill="#37AC00"/>
<path d="M127.398 34.704C127.398 37.4346 126.972 39.824 126.118 41.872C125.308 43.92 124.326 45.4986 123.174 46.608C122.022 47.7173 120.636 48.6133 119.014 49.296C117.393 49.936 115.964 50.3413 114.726 50.512C113.532 50.6826 112.273 50.768 110.95 50.768C109.628 50.768 108.348 50.6613 107.11 50.448C105.873 50.2773 104.444 49.872 102.822 49.232C101.244 48.5493 99.8571 47.6533 98.6625 46.544C97.5105 45.4346 96.5078 43.8773 95.6545 41.872C94.8438 39.824 94.4385 37.4346 94.4385 34.704V0.719971H100.07V34.576C100.07 36.4533 100.326 38.1173 100.838 39.568C101.393 40.976 102.054 42.064 102.822 42.832C103.59 43.6 104.508 44.24 105.574 44.752C106.641 45.2213 107.58 45.52 108.39 45.648C109.244 45.776 110.097 45.84 110.95 45.84C111.804 45.84 112.636 45.776 113.446 45.648C114.3 45.4773 115.238 45.1573 116.262 44.688C117.286 44.176 118.182 43.536 118.95 42.768C119.761 42 120.422 40.912 120.934 39.504C121.489 38.096 121.766 36.496 121.766 34.704V0.719971H127.398V34.704Z" fill="#37AC00"/>
</svg>
