<svg width="51" height="50" viewBox="0 0 51 50" fill="none" xmlns="http://www.w3.org/2000/svg">
<path d="M45.4682 40.5815H17.4277L5.15414 4H1" stroke="#37AC00" stroke-width="2" stroke-miterlimit="10" stroke-linecap="round" stroke-linejoin="round"/>
<path d="M45.4208 20.1616V30.0764H13.906" stroke="#37AC00" stroke-width="2" stroke-miterlimit="10" stroke-linecap="round" stroke-linejoin="round"/>
<path d="M34.1292 13.0046H8.17529" stroke="#37AC00" stroke-width="2" stroke-miterlimit="10" stroke-linecap="round" stroke-linejoin="round"/>
<path d="M40.7949 46.96C42.2549 46.96 43.4385 45.7841 43.4385 44.3335C43.4385 42.8829 42.2549 41.707 40.7949 41.707C39.3349 41.707 38.1514 42.8829 38.1514 44.3335C38.1514 45.7841 39.3349 46.96 40.7949 46.96Z" stroke="#37AC00" stroke-width="2" stroke-miterlimit="10" stroke-linecap="round" stroke-linejoin="round"/>
<path d="M22.1958 46.96C23.6558 46.96 24.8393 45.7841 24.8393 44.3335C24.8393 42.8829 23.6558 41.707 22.1958 41.707C20.7358 41.707 19.5522 42.8829 19.5522 44.3335C19.5522 45.7841 20.7358 46.96 22.1958 46.96Z" stroke="#37AC00" stroke-width="2" stroke-miterlimit="10" stroke-linecap="round" stroke-linejoin="round"/>
<path d="M42.06 20.9209C46.44 20.9209 49.9907 17.3933 49.9907 13.0417C49.9907 8.69021 46.44 5.1626 42.06 5.1626C37.6801 5.1626 34.1294 8.69021 34.1294 13.0417C34.1294 17.3933 37.6801 20.9209 42.06 20.9209Z" stroke="#37AC00" stroke-width="2" stroke-miterlimit="10" stroke-linecap="round" stroke-linejoin="round"/>
<path d="M42 8L42 18" stroke="#37AC00" stroke-width="2" stroke-miterlimit="10" stroke-linecap="round" stroke-linejoin="round"/>
<path d="M47 13.0036L37 13" stroke="#37AC00" stroke-width="2" stroke-miterlimit="10" stroke-linecap="round" stroke-linejoin="round"/>
</svg>